<mxfile host="Electron" modified="2024-04-08T14:58:31.001Z" agent="Mozilla/5.0 (Windows NT 10.0; Win64; x64) AppleWebKit/537.36 (KHTML, like Gecko) draw.io/21.6.1 Chrome/112.0.5615.204 Electron/24.6.1 Safari/537.36" etag="0CrU3C-tf5w0es0fbygA" version="21.6.1" type="device">
  <diagram name="第 1 页" id="3s178zKIu0w9l27G8kxA">
    <mxGraphModel dx="2885" dy="1188" grid="1" gridSize="10" guides="1" tooltips="1" connect="1" arrows="1" fold="1" page="1" pageScale="1" pageWidth="827" pageHeight="1169" math="1" shadow="0">
      <root>
        <mxCell id="0" />
        <mxCell id="1" parent="0" />
        <mxCell id="oQOaGF2rVVb9ICv1baVZ-3" value="" style="group" vertex="1" connectable="0" parent="1">
          <mxGeometry x="-720" y="280" width="615" height="350" as="geometry" />
        </mxCell>
        <mxCell id="oQOaGF2rVVb9ICv1baVZ-2" value="" style="group" vertex="1" connectable="0" parent="oQOaGF2rVVb9ICv1baVZ-3">
          <mxGeometry x="20" width="595" height="350" as="geometry" />
        </mxCell>
        <mxCell id="_i8uwR_MuPLbY7DFZ67O-1" value="" style="endArrow=none;dashed=1;html=1;rounded=0;strokeWidth=3;" parent="oQOaGF2rVVb9ICv1baVZ-2" edge="1">
          <mxGeometry width="50" height="50" relative="1" as="geometry">
            <mxPoint x="10" y="300" as="sourcePoint" />
            <mxPoint x="10" y="300" as="targetPoint" />
            <Array as="points">
              <mxPoint x="10" y="50" />
              <mxPoint x="190" y="50" />
              <mxPoint x="190" y="300" />
            </Array>
          </mxGeometry>
        </mxCell>
        <mxCell id="_i8uwR_MuPLbY7DFZ67O-2" value="" style="endArrow=none;dashed=1;html=1;rounded=0;strokeWidth=3;" parent="oQOaGF2rVVb9ICv1baVZ-2" source="_i8uwR_MuPLbY7DFZ67O-14" edge="1">
          <mxGeometry width="50" height="50" relative="1" as="geometry">
            <mxPoint x="320.00000000000006" y="300" as="sourcePoint" />
            <mxPoint x="320.00000000000006" y="300" as="targetPoint" />
            <Array as="points">
              <mxPoint x="320.00000000000006" y="50" />
              <mxPoint x="500.0000000000001" y="50" />
              <mxPoint x="500.0000000000001" y="300" />
            </Array>
          </mxGeometry>
        </mxCell>
        <mxCell id="_i8uwR_MuPLbY7DFZ67O-3" value="" style="rounded=0;whiteSpace=wrap;html=1;fillColor=#b1ddf0;strokeColor=#10739e;strokeWidth=3;container=0;" parent="oQOaGF2rVVb9ICv1baVZ-2" vertex="1">
          <mxGeometry x="10" y="50" width="120.00000000000001" height="130" as="geometry" />
        </mxCell>
        <mxCell id="_i8uwR_MuPLbY7DFZ67O-4" value="" style="rounded=0;whiteSpace=wrap;html=1;fillColor=#d0cee2;strokeWidth=3;strokeColor=#56517e;container=0;" parent="oQOaGF2rVVb9ICv1baVZ-2" vertex="1">
          <mxGeometry x="60" y="130" width="130.00000000000003" height="170" as="geometry" />
        </mxCell>
        <mxCell id="_i8uwR_MuPLbY7DFZ67O-5" value="$$B_{\text{gt}} \cap B_{\text{pre}}$$" style="rounded=0;whiteSpace=wrap;html=1;fillColor=#bac8d3;strokeColor=#23445d;container=0;" parent="oQOaGF2rVVb9ICv1baVZ-2" vertex="1">
          <mxGeometry x="60" y="130" width="70.00000000000001" height="50" as="geometry" />
        </mxCell>
        <mxCell id="_i8uwR_MuPLbY7DFZ67O-6" value="" style="rounded=0;whiteSpace=wrap;html=1;fillColor=none;strokeWidth=3;strokeColor=#7EA6E0;container=0;" parent="oQOaGF2rVVb9ICv1baVZ-2" vertex="1">
          <mxGeometry x="320.00000000000006" y="50" width="120.00000000000001" height="130" as="geometry" />
        </mxCell>
        <mxCell id="_i8uwR_MuPLbY7DFZ67O-8" value="" style="rounded=0;whiteSpace=wrap;html=1;fillColor=none;strokeWidth=3;strokeColor=#A680B8;container=0;" parent="oQOaGF2rVVb9ICv1baVZ-2" vertex="1">
          <mxGeometry x="370.00000000000006" y="130" width="130.00000000000003" height="170" as="geometry" />
        </mxCell>
        <mxCell id="_i8uwR_MuPLbY7DFZ67O-12" value="" style="shape=curlyBracket;whiteSpace=wrap;html=1;rounded=1;flipH=1;labelPosition=right;verticalLabelPosition=middle;align=left;verticalAlign=middle;rotation=-90;container=0;" parent="oQOaGF2rVVb9ICv1baVZ-2" vertex="1">
          <mxGeometry x="370.00000000000006" y="-20" width="20" height="120.00000000000001" as="geometry" />
        </mxCell>
        <mxCell id="_i8uwR_MuPLbY7DFZ67O-13" value="" style="shape=curlyBracket;whiteSpace=wrap;html=1;rounded=1;flipH=1;labelPosition=right;verticalLabelPosition=middle;align=left;verticalAlign=middle;rotation=-180;container=0;" parent="oQOaGF2rVVb9ICv1baVZ-2" vertex="1">
          <mxGeometry x="300.00000000000006" y="50" width="20" height="130" as="geometry" />
        </mxCell>
        <mxCell id="_i8uwR_MuPLbY7DFZ67O-15" value="" style="endArrow=none;dashed=1;html=1;rounded=0;strokeWidth=3;" parent="oQOaGF2rVVb9ICv1baVZ-2" target="_i8uwR_MuPLbY7DFZ67O-14" edge="1">
          <mxGeometry width="50" height="50" relative="1" as="geometry">
            <mxPoint x="320.00000000000006" y="300" as="sourcePoint" />
            <mxPoint x="320.00000000000006" y="300" as="targetPoint" />
            <Array as="points" />
          </mxGeometry>
        </mxCell>
        <mxCell id="_i8uwR_MuPLbY7DFZ67O-14" value="" style="shape=waypoint;sketch=0;fillStyle=solid;size=6;pointerEvents=1;points=[];fillColor=none;resizable=0;rotatable=0;perimeter=centerPerimeter;snapToPoint=1;container=0;" parent="oQOaGF2rVVb9ICv1baVZ-2" vertex="1">
          <mxGeometry x="310" y="170" width="20" height="20" as="geometry" />
        </mxCell>
        <mxCell id="_i8uwR_MuPLbY7DFZ67O-16" value="" style="shape=waypoint;sketch=0;fillStyle=solid;size=6;pointerEvents=1;points=[];fillColor=none;resizable=0;rotatable=0;perimeter=centerPerimeter;snapToPoint=1;container=0;" parent="oQOaGF2rVVb9ICv1baVZ-2" vertex="1">
          <mxGeometry x="430.00000000000006" y="40" width="20" height="20" as="geometry" />
        </mxCell>
        <mxCell id="_i8uwR_MuPLbY7DFZ67O-19" value="" style="shape=waypoint;sketch=0;fillStyle=solid;size=6;pointerEvents=1;points=[];fillColor=none;resizable=0;rotatable=0;perimeter=centerPerimeter;snapToPoint=1;container=0;" parent="oQOaGF2rVVb9ICv1baVZ-2" vertex="1">
          <mxGeometry x="490" y="120" width="20" height="20" as="geometry" />
        </mxCell>
        <mxCell id="_i8uwR_MuPLbY7DFZ67O-20" value="" style="shape=waypoint;sketch=0;fillStyle=solid;size=6;pointerEvents=1;points=[];fillColor=none;resizable=0;rotatable=0;perimeter=centerPerimeter;snapToPoint=1;container=0;" parent="oQOaGF2rVVb9ICv1baVZ-2" vertex="1">
          <mxGeometry x="360.00000000000006" y="290" width="20" height="20" as="geometry" />
        </mxCell>
        <mxCell id="_i8uwR_MuPLbY7DFZ67O-21" value="$$\mathcal{w}_{\text{gt}}$$" style="text;html=1;align=center;verticalAlign=middle;resizable=0;points=[];autosize=1;strokeColor=none;fillColor=none;container=0;" parent="oQOaGF2rVVb9ICv1baVZ-2" vertex="1">
          <mxGeometry x="295" y="8" width="170" height="30" as="geometry" />
        </mxCell>
        <mxCell id="_i8uwR_MuPLbY7DFZ67O-22" value="&lt;span style=&quot;font-size: 15px;&quot;&gt;$$\mathcal{h}_{\text{gt}}$$&lt;/span&gt;" style="text;html=1;align=center;verticalAlign=middle;resizable=0;points=[];autosize=1;strokeColor=none;fillColor=none;container=0;" parent="oQOaGF2rVVb9ICv1baVZ-2" vertex="1">
          <mxGeometry x="190" y="98" width="200" height="30" as="geometry" />
        </mxCell>
        <mxCell id="_i8uwR_MuPLbY7DFZ67O-23" value="" style="shape=waypoint;sketch=0;fillStyle=solid;size=6;pointerEvents=1;points=[];fillColor=none;resizable=0;rotatable=0;perimeter=centerPerimeter;snapToPoint=1;container=0;" parent="oQOaGF2rVVb9ICv1baVZ-2" vertex="1">
          <mxGeometry x="435" y="205" width="20" height="20" as="geometry" />
        </mxCell>
        <mxCell id="_i8uwR_MuPLbY7DFZ67O-24" value="" style="shape=waypoint;sketch=0;fillStyle=solid;size=6;pointerEvents=1;points=[];fillColor=none;resizable=0;rotatable=0;perimeter=centerPerimeter;snapToPoint=1;container=0;" parent="oQOaGF2rVVb9ICv1baVZ-2" vertex="1">
          <mxGeometry x="370.00000000000006" y="105" width="20" height="20" as="geometry" />
        </mxCell>
        <mxCell id="_i8uwR_MuPLbY7DFZ67O-25" value="" style="endArrow=none;dashed=1;html=1;strokeWidth=2;rounded=0;strokeColor=#FF0000;exitX=0.55;exitY=0.75;exitDx=0;exitDy=0;exitPerimeter=0;entryX=1.35;entryY=0.3;entryDx=0;entryDy=0;entryPerimeter=0;" parent="oQOaGF2rVVb9ICv1baVZ-2" source="_i8uwR_MuPLbY7DFZ67O-24" target="_i8uwR_MuPLbY7DFZ67O-23" edge="1">
          <mxGeometry width="50" height="50" relative="1" as="geometry">
            <mxPoint x="380.00000000000006" y="110" as="sourcePoint" />
            <mxPoint x="350.00000000000006" y="350" as="targetPoint" />
          </mxGeometry>
        </mxCell>
        <mxCell id="_i8uwR_MuPLbY7DFZ67O-28" value="" style="endArrow=none;dashed=1;html=1;rounded=0;exitX=0;exitY=0;exitDx=0;exitDy=0;entryX=1;entryY=1;entryDx=0;entryDy=0;strokeWidth=2;" parent="oQOaGF2rVVb9ICv1baVZ-2" source="_i8uwR_MuPLbY7DFZ67O-6" target="_i8uwR_MuPLbY7DFZ67O-8" edge="1">
          <mxGeometry width="50" height="50" relative="1" as="geometry">
            <mxPoint x="300.00000000000006" y="400" as="sourcePoint" />
            <mxPoint x="350.00000000000006" y="350" as="targetPoint" />
          </mxGeometry>
        </mxCell>
        <mxCell id="_i8uwR_MuPLbY7DFZ67O-30" value="" style="shape=curlyBracket;whiteSpace=wrap;html=1;rounded=1;flipH=1;labelPosition=right;verticalLabelPosition=middle;align=left;verticalAlign=middle;rotation=0;container=0;" parent="oQOaGF2rVVb9ICv1baVZ-2" vertex="1">
          <mxGeometry x="500.0000000000001" y="130" width="20" height="170" as="geometry" />
        </mxCell>
        <mxCell id="_i8uwR_MuPLbY7DFZ67O-34" value="$$\mathcal{w}_{\text{pre}}$$" style="text;html=1;align=center;verticalAlign=middle;resizable=0;points=[];autosize=1;strokeColor=none;fillColor=none;container=0;" parent="oQOaGF2rVVb9ICv1baVZ-2" vertex="1">
          <mxGeometry x="350.00000000000006" y="310" width="170" height="30" as="geometry" />
        </mxCell>
        <mxCell id="_i8uwR_MuPLbY7DFZ67O-35" value="" style="shape=curlyBracket;whiteSpace=wrap;html=1;rounded=1;flipH=1;labelPosition=right;verticalLabelPosition=middle;align=left;verticalAlign=middle;rotation=0;size=0.5;container=0;" parent="oQOaGF2rVVb9ICv1baVZ-2" vertex="1">
          <mxGeometry x="190" y="50" width="20" height="250" as="geometry" />
        </mxCell>
        <mxCell id="_i8uwR_MuPLbY7DFZ67O-36" value="" style="shape=curlyBracket;whiteSpace=wrap;html=1;rounded=1;flipH=1;labelPosition=right;verticalLabelPosition=middle;align=left;verticalAlign=middle;rotation=90;size=0.5;container=0;" parent="oQOaGF2rVVb9ICv1baVZ-2" vertex="1">
          <mxGeometry x="90" y="220.01" width="20" height="180.00000000000003" as="geometry" />
        </mxCell>
        <mxCell id="_i8uwR_MuPLbY7DFZ67O-39" value="$$(\mathcal{x}^{\text{gt}}_{\text{1}},\mathcal{y}^{\text{gt}}_{\text{1}}&lt;br&gt;)$$" style="text;html=1;align=center;verticalAlign=middle;resizable=0;points=[];autosize=1;strokeColor=none;fillColor=none;container=0;" parent="oQOaGF2rVVb9ICv1baVZ-2" vertex="1">
          <mxGeometry x="100" y="173" width="380" height="40" as="geometry" />
        </mxCell>
        <mxCell id="_i8uwR_MuPLbY7DFZ67O-41" value="" style="shape=curlyBracket;whiteSpace=wrap;html=1;rounded=1;flipH=1;labelPosition=right;verticalLabelPosition=middle;align=left;verticalAlign=middle;rotation=90;container=0;" parent="oQOaGF2rVVb9ICv1baVZ-2" vertex="1">
          <mxGeometry x="425.00000000000006" y="245" width="20" height="130.01" as="geometry" />
        </mxCell>
        <mxCell id="_i8uwR_MuPLbY7DFZ67O-43" value="$$(\mathcal{x}^{\text{pre}}_{\text{1}},\mathcal{y}^{\text{pre}}_{\text{1}}&lt;br style=&quot;border-color: var(--border-color);&quot;&gt;)$$" style="text;html=1;align=center;verticalAlign=middle;resizable=0;points=[];autosize=1;strokeColor=none;fillColor=none;container=0;" parent="oQOaGF2rVVb9ICv1baVZ-2" vertex="1">
          <mxGeometry x="175" y="300" width="390" height="40" as="geometry" />
        </mxCell>
        <mxCell id="_i8uwR_MuPLbY7DFZ67O-48" value="$$B_{\text{pre}}$$" style="text;html=1;align=center;verticalAlign=middle;resizable=0;points=[];autosize=1;strokeColor=none;fillColor=none;container=0;" parent="oQOaGF2rVVb9ICv1baVZ-2" vertex="1">
          <mxGeometry x="105" y="270" width="120" height="30" as="geometry" />
        </mxCell>
        <mxCell id="_i8uwR_MuPLbY7DFZ67O-49" value="$$C&lt;br&gt;$$" style="text;html=1;align=center;verticalAlign=middle;resizable=0;points=[];autosize=1;strokeColor=none;fillColor=none;container=0;" parent="oQOaGF2rVVb9ICv1baVZ-2" vertex="1">
          <mxGeometry y="265" width="50" height="40" as="geometry" />
        </mxCell>
        <mxCell id="_i8uwR_MuPLbY7DFZ67O-50" value="&lt;span style=&quot;font-size: 15px;&quot;&gt;$$\mathcal{h}_{\text{c}}$$&lt;/span&gt;" style="text;html=1;align=center;verticalAlign=middle;resizable=0;points=[];autosize=1;strokeColor=none;fillColor=none;container=0;" parent="oQOaGF2rVVb9ICv1baVZ-2" vertex="1">
          <mxGeometry x="125" y="160" width="200" height="30" as="geometry" />
        </mxCell>
        <mxCell id="_i8uwR_MuPLbY7DFZ67O-51" value="&lt;span style=&quot;font-size: 15px;&quot;&gt;$$\mathcal{w}_{\text{c}}$$&lt;/span&gt;" style="text;html=1;align=center;verticalAlign=middle;resizable=0;points=[];autosize=1;strokeColor=none;fillColor=none;container=0;" parent="oQOaGF2rVVb9ICv1baVZ-2" vertex="1">
          <mxGeometry y="320" width="200" height="30" as="geometry" />
        </mxCell>
        <mxCell id="_i8uwR_MuPLbY7DFZ67O-53" value="$$\rho(B_{\text{gt}},B_{\text{pre}}&lt;br style=&quot;border-color: var(--border-color);&quot;&gt;)$$" style="text;html=1;align=center;verticalAlign=middle;resizable=0;points=[];autosize=1;strokeColor=none;fillColor=none;container=0;" parent="oQOaGF2rVVb9ICv1baVZ-2" vertex="1">
          <mxGeometry x="345.00000000000006" y="130" width="200" height="40" as="geometry" />
        </mxCell>
        <mxCell id="_i8uwR_MuPLbY7DFZ67O-44" value="$$(\mathcal{x}^&lt;br&gt;{\text{pre}}&lt;br&gt;_{\text{2}},&lt;br&gt;\mathcal{y}^&lt;br&gt;{\text{pre}}&lt;br&gt;_{\text{2}}&lt;br style=&quot;border-color: var(--border-color);&quot;&gt;)$$" style="text;html=1;align=center;verticalAlign=middle;resizable=0;points=[];autosize=1;strokeColor=none;fillColor=none;container=0;" parent="oQOaGF2rVVb9ICv1baVZ-2" vertex="1">
          <mxGeometry x="480.00000000000006" y="58" width="110" height="110" as="geometry" />
        </mxCell>
        <mxCell id="_i8uwR_MuPLbY7DFZ67O-32" value="&lt;span style=&quot;font-size: 15px;&quot;&gt;$$\mathcal{h}&lt;br&gt;_{\text{pre}}$$&lt;/span&gt;" style="text;html=1;align=center;verticalAlign=middle;resizable=0;points=[];autosize=1;strokeColor=none;fillColor=none;container=0;" parent="oQOaGF2rVVb9ICv1baVZ-2" vertex="1">
          <mxGeometry x="475.00000000000006" y="190" width="120" height="50" as="geometry" />
        </mxCell>
        <mxCell id="_i8uwR_MuPLbY7DFZ67O-40" value="$$(\mathcal{x}^{\text{gt}}_{\text{2}},&lt;br&gt;\mathcal{y}^{\text{gt}}_{\text{2}}&lt;br style=&quot;border-color: var(--border-color);&quot;&gt;)$$" style="text;html=1;align=center;verticalAlign=middle;resizable=0;points=[];autosize=1;strokeColor=none;fillColor=none;container=0;" parent="oQOaGF2rVVb9ICv1baVZ-2" vertex="1">
          <mxGeometry x="355.00000000000006" width="210" height="60" as="geometry" />
        </mxCell>
        <mxCell id="_i8uwR_MuPLbY7DFZ67O-47" value="$$\mathcal{B&lt;br&gt;}_{\text{gt}}$$" style="text;html=1;align=center;verticalAlign=middle;resizable=0;points=[];autosize=1;strokeColor=none;fillColor=none;container=0;" parent="oQOaGF2rVVb9ICv1baVZ-3" vertex="1">
          <mxGeometry y="50" width="100" height="40" as="geometry" />
        </mxCell>
      </root>
    </mxGraphModel>
  </diagram>
</mxfile>
